<svg width="40" height="41" viewBox="0 0 40 41" fill="none" xmlns="http://www.w3.org/2000/svg">
<g clip-path="url(#clip0)">
<path d="M22.2096 20.3309L39.5421 2.99825C40.1524 2.38801 40.1524 1.39864 39.5421 0.788485C38.9319 0.17833 37.9425 0.178252 37.3324 0.788485L19.9997 18.1211L2.66719 0.788485C2.05696 0.178252 1.06759 0.178252 0.457431 0.788485C-0.152724 1.39872 -0.152802 2.38809 0.457431 2.99825L17.79 20.3308L0.457431 37.6634C-0.152802 38.2736 -0.152802 39.263 0.457431 39.8732C0.762508 40.1782 1.16243 40.3307 1.56235 40.3307C1.96227 40.3307 2.36211 40.1782 2.66727 39.8732L19.9997 22.5406L37.3323 39.8732C37.6374 40.1782 38.0373 40.3307 38.4372 40.3307C38.8371 40.3307 39.237 40.1782 39.5421 39.8732C40.1524 39.2629 40.1524 38.2736 39.5421 37.6634L22.2096 20.3309Z" fill="#3E4B64"/>
</g>
<defs>
<clipPath id="clip0">
<rect width="40" height="40" fill="white" transform="translate(0 0.330078)"/>
</clipPath>
</defs>
</svg>
