<svg width="40" height="33" viewBox="0 0 40 33" fill="none" xmlns="http://www.w3.org/2000/svg">
<path d="M38.3333 17.7046H1.66667C0.746663 17.7046 0 17.095 0 16.3439C0 15.5928 0.746663 14.9832 1.66667 14.9832H38.3333C39.2533 14.9832 40 15.5928 40 16.3439C40 17.095 39.2533 17.7046 38.3333 17.7046Z" fill="black"/>
<path d="M38.3333 7.27233H1.66667C0.746663 7.27233 0 6.66273 0 5.91162C0 5.1605 0.746663 4.5509 1.66667 4.5509H38.3333C39.2533 4.5509 40 5.1605 40 5.91162C40 6.66273 39.2533 7.27233 38.3333 7.27233Z" fill="black"/>
<path d="M38.3333 28.1366H1.66667C0.746663 28.1366 0 27.527 0 26.7759C0 26.0248 0.746663 25.4152 1.66667 25.4152H38.3333C39.2533 25.4152 40 26.0248 40 26.7759C40 27.527 39.2533 28.1366 38.3333 28.1366Z" fill="black"/>
</svg>
