<svg aria-hidden="true" style="position: absolute; width: 0; height: 0; overflow: hidden;" version="1.1" xmlns="http://www.w3.org/2000/svg" xmlns:xlink="http://www.w3.org/1999/xlink">
<defs>
<symbol id="icon-logoMain" viewBox="0 0 41 32">
<path d="M0 0h40.678v31.813h-40.678v-31.813z"></path>
</symbol>
<symbol id="icon-cancel" viewBox="0 0 31 32">
<path fill="#3e4b64" style="fill: var(--color1, #3e4b64)" d="M17.334 15.868l13.528-13.528c0.476-0.476 0.476-1.248 0-1.725s-1.248-0.476-1.725 0l-13.528 13.528-13.528-13.528c-0.476-0.476-1.248-0.476-1.725 0s-0.476 1.248 0 1.725l13.528 13.528-13.528 13.528c-0.476 0.476-0.476 1.248 0 1.725 0.238 0.238 0.55 0.357 0.862 0.357s0.624-0.119 0.862-0.357l13.528-13.528 13.528 13.528c0.238 0.238 0.55 0.357 0.862 0.357s0.624-0.119 0.862-0.357c0.476-0.476 0.476-1.248 0-1.725l-13.528-13.528z"></path>
</symbol>
<symbol id="icon-menu" viewBox="0 0 39 32">
<path d="M37.172 17.168h-35.556c-0.892 0-1.616-0.591-1.616-1.319s0.724-1.319 1.616-1.319h35.556c0.892 0 1.616 0.591 1.616 1.319s-0.724 1.319-1.616 1.319z"></path>
<path d="M37.172 7.052h-35.556c-0.892 0-1.616-0.591-1.616-1.319s0.724-1.319 1.616-1.319h35.556c0.892 0 1.616 0.591 1.616 1.319s-0.724 1.319-1.616 1.319z"></path>
<path d="M37.172 27.284h-35.556c-0.892 0-1.616-0.591-1.616-1.319s0.724-1.319 1.616-1.319h35.556c0.892 0 1.616 0.591 1.616 1.319s-0.724 1.319-1.616 1.319z"></path>
</symbol>
<symbol id="icon-telegram" viewBox="0 0 32 32">
<path fill="#039be5" style="fill: var(--color2, #039be5)" d="M16.020 30.999c8.69 0 15.734-6.916 15.734-15.448s-7.045-15.448-15.734-15.448c-8.69 0-15.734 6.916-15.734 15.448s7.045 15.448 15.734 15.448z"></path>
<path fill="#fff" style="fill: var(--color3, #fff)" d="M7.486 15.216l15.171-5.743c0.704-0.25 1.319 0.169 1.091 1.214l0.001-0.001-2.583 11.948c-0.191 0.847-0.704 1.053-1.421 0.654l-3.934-2.846-1.897 1.795c-0.21 0.206-0.387 0.38-0.793 0.38l0.279-3.93 7.29-6.466c0.317-0.274-0.071-0.429-0.489-0.156l-9.009 5.569-3.884-1.19c-0.843-0.263-0.861-0.828 0.178-1.227z"></path>
</symbol>
<symbol id="icon-viber" viewBox="0 0 32 32">
<path d="M30.606 17.987c0.939-7.759-0.451-12.657-2.958-14.873l0.001-0.001c-4.046-3.784-17.712-4.344-22.553 0.17-2.174 2.208-2.94 5.448-3.024 9.46-0.084 4.013-0.184 11.529 6.951 13.569h0.007l-0.007 3.114c0 0-0.049 1.262 0.772 1.515 0.939 0.299 1.364-0.287 4.284-3.711 4.883 0.416 8.633-0.537 9.059-0.676 0.986-0.324 6.565-1.049 7.467-8.566zM14.561 25.038c0 0-3.091 3.784-4.052 4.766-0.315 0.319-0.66 0.29-0.654-0.344 0-0.416 0.024-5.17 0.024-5.17-6.049-1.702-5.692-8.103-5.626-11.451 0.066-3.35 0.69-6.093 2.531-7.94 4.247-3.91 16.227-3.036 19.28-0.219 3.732 3.248 2.403 12.424 2.411 12.737-0.767 6.275-5.288 6.672-6.119 6.944-0.355 0.116-3.653 0.949-7.794 0.677z"></path>
<path d="M16.271 5.634c-0.505 0-0.505 0.772 0 0.779 3.917 0.030 7.142 2.71 7.177 7.626 0 0.519 0.774 0.512 0.767-0.006h-0.001c-0.042-5.297-3.564-8.369-7.943-8.399z"></path>
<path d="M21.422 13.225c-0.012 0.512 0.761 0.537 0.767 0.018 0.064-2.921-1.77-5.327-5.217-5.581-0.505-0.036-0.557 0.743-0.054 0.779 2.99 0.223 4.564 2.226 4.504 4.784z"></path>
<path d="M20.596 16.547c-0.648-0.368-1.307-0.139-1.58 0.223l-0.57 0.725c-0.29 0.368-0.831 0.319-0.831 0.319-3.952-1.026-5.009-5.086-5.009-5.086s-0.048-0.55 0.313-0.845l0.713-0.579c0.357-0.278 0.582-0.947 0.219-1.605-0.97-1.721-1.622-2.315-1.954-2.77-0.349-0.429-0.873-0.525-1.419-0.236h-0.012c-1.134 0.651-2.376 1.871-1.979 3.126 0.678 1.323 1.924 5.542 5.894 8.73 1.866 1.507 4.819 3.052 6.072 3.409l0.012 0.018c1.235 0.404 2.436-0.862 3.077-2.009v-0.009c0.284-0.555 0.19-1.080-0.226-1.424-0.737-0.706-1.849-1.484-2.722-1.985z"></path>
<path d="M17.512 10.535c1.26 0.072 1.871 0.718 1.937 2.046 0.024 0.519 0.791 0.483 0.767-0.036-0.084-1.733-1.004-2.698-2.662-2.788-0.505-0.030-0.552 0.749-0.042 0.779z"></path>
</symbol>
<symbol id="icon-whatsapp" viewBox="0 0 33 32">
<path fill="#4caf50" style="fill: var(--color5, #4caf50)" d="M16.556 0.102h-0.008c-8.675 0-15.73 6.929-15.73 15.448 0 3.379 1.109 6.511 2.995 9.055l-1.961 5.739 6.048-1.898c2.488 1.618 5.456 2.553 8.656 2.553 8.676 0 15.73-6.931 15.73-15.448s-7.055-15.448-15.73-15.448z"></path>
<path fill="#fafafa" style="fill: var(--color6, #fafafa)" d="M25.711 21.917c-0.38 1.052-1.886 1.925-3.088 2.18-0.822 0.172-1.896 0.309-5.511-1.162-4.624-1.881-7.602-6.494-7.834-6.793-0.222-0.299-1.868-2.443-1.868-4.66s1.147-3.296 1.609-3.76c0.38-0.38 1.007-0.554 1.609-0.554 0.195 0 0.37 0.010 0.527 0.017 0.462 0.019 0.694 0.046 0.999 0.763 0.38 0.898 1.304 3.115 1.414 3.343 0.112 0.228 0.224 0.537 0.067 0.836-0.148 0.309-0.277 0.446-0.509 0.709s-0.452 0.463-0.684 0.745c-0.212 0.245-0.452 0.508-0.185 0.962 0.267 0.444 1.192 1.925 2.553 3.115 1.756 1.535 3.18 2.026 3.69 2.234 0.38 0.154 0.832 0.118 1.109-0.172 0.352-0.373 0.787-0.991 1.229-1.599 0.315-0.436 0.712-0.49 1.129-0.336 0.425 0.145 2.673 1.236 3.135 1.462 0.462 0.228 0.767 0.336 0.879 0.527 0.11 0.191 0.11 1.089-0.269 2.143z"></path>
</symbol>
</defs>
</svg>
