<svg width="29" height="29" viewBox="0 0 29 29" fill="none" xmlns="http://www.w3.org/2000/svg">
<g clip-path="url(#clip0)">
<path d="M14.5184 28.0929C22.3936 28.0929 28.7777 21.8249 28.7777 14.0929C28.7777 6.36091 22.3936 0.0928955 14.5184 0.0928955C6.64324 0.0928955 0.259155 6.36091 0.259155 14.0929C0.259155 21.8249 6.64324 28.0929 14.5184 28.0929Z" fill="#039BE5"/>
<path d="M6.78398 13.7896L20.5323 8.58506C21.1704 8.35873 21.7277 8.73789 21.5209 9.68523L21.5221 9.68406L19.1812 20.5119C19.0077 21.2796 18.5431 21.4662 17.8931 21.1046L14.3283 18.5251L12.6089 20.1514C12.4188 20.3381 12.2583 20.4956 11.89 20.4956L12.1431 16.9337L18.7499 11.0736C19.0374 10.8251 18.6857 10.6851 18.3067 10.9324L10.142 15.9794L6.62237 14.9014C5.85831 14.6634 5.84168 14.1512 6.78398 13.7896Z" fill="white"/>
</g>
<defs>
<clipPath id="clip0">
<rect width="28.5185" height="28" fill="white" transform="translate(0.259155 0.0928955)"/>
</clipPath>
</defs>
</svg>
