<svg width="30" height="29" viewBox="0 0 30 29" fill="none" xmlns="http://www.w3.org/2000/svg">
<g clip-path="url(#clip0)">
<path d="M15.0035 0.0928955H14.9964C7.13422 0.0928955 0.740723 6.3719 0.740723 14.0929C0.740723 17.1554 1.746 19.9939 3.45533 22.2986L1.67827 27.4996L7.15917 25.7794C9.41392 27.2459 12.1036 28.0929 15.0035 28.0929C22.8657 28.0929 29.2592 21.8121 29.2592 14.0929C29.2592 6.37365 22.8657 0.0928955 15.0035 0.0928955Z" fill="#4CAF50"/>
<path d="M23.3006 19.8626C22.9566 20.8163 21.5913 21.6073 20.5023 21.8383C19.7572 21.9941 18.784 22.1183 15.5079 20.7848C11.3175 19.0803 8.61894 14.8996 8.40862 14.6283C8.20721 14.3571 6.71533 12.4146 6.71533 10.4056C6.71533 8.39659 7.75448 7.41834 8.17334 6.99834C8.51735 6.65359 9.08593 6.49609 9.63135 6.49609C9.80781 6.49609 9.96644 6.50484 10.109 6.51184C10.5279 6.52934 10.7382 6.55384 11.0145 7.20309C11.3585 8.01684 12.1962 10.0258 12.296 10.2323C12.3976 10.4388 12.4992 10.7188 12.3567 10.9901C12.223 11.2701 12.1053 11.3943 11.895 11.6323C11.6847 11.8703 11.4851 12.0523 11.2747 12.3078C11.0822 12.5301 10.8648 12.7681 11.1072 13.1793C11.3496 13.5818 12.1873 14.9241 13.4207 16.0021C15.0124 17.3933 16.3029 17.8378 16.7645 18.0268C17.1085 18.1668 17.5185 18.1336 17.7698 17.8711C18.0889 17.5333 18.4828 16.9733 18.8838 16.4221C19.169 16.0266 19.5291 15.9776 19.9069 16.1176C20.2919 16.2488 22.3292 17.2376 22.7481 17.4423C23.167 17.6488 23.4432 17.7468 23.5448 17.9201C23.6446 18.0933 23.6446 18.9071 23.3006 19.8626Z" fill="#FAFAFA"/>
</g>
<defs>
<clipPath id="clip0">
<rect width="28.5185" height="28" fill="white" transform="translate(0.740723 0.0928955)"/>
</clipPath>
</defs>
</svg>
